<svg xmlns="http://www.w3.org/2000/svg" viewBox="0 0 32.58 32.58" fill="#fff">
<title>DAL__Git</title>
<g id="Layer_2" data-name="Layer 2">
<g id="Layer_1-2" data-name="Layer 1">
<path class="cls-1" d="M20.33,31c0-.53,0-2.29,0-4.47a3.85,3.85,0,0,0-1.11-3c3.63-.41,7.44-1.78,7.44-8A6.3,6.3,0,0,0,25,11.07a5.91,5.91,0,0,0-.17-4.31s-1.36-.44-4.47,1.67a15.41,15.41,0,0,0-8.16,0C9.1,6.32,7.73,6.76,7.73,6.76a5.94,5.94,0,0,0-.16,4.31A6.3,6.3,0,0,0,5.9,15.44c0,6.24,3.8,7.64,7.42,8a3.46,3.46,0,0,0-1,2.18,3.48,3.48,0,0,1-4.74-1.36,3.43,3.43,0,0,0-2.49-1.68s-1.59,0-.12,1A4.36,4.36,0,0,1,6.74,26s1,3.17,5.49,2.18c0,1.36,0,2.38,0,2.77s-.29.91-1.07.79a16.15,16.15,0,0,0,10.22,0C20.61,31.88,20.33,31.39,20.33,31Z"/>
</g>
</g>
</svg>
